<svg width="344" height="158" viewBox="0 0 344 158" fill="none" xmlns="http://www.w3.org/2000/svg">
<path d="M18.7581 102.633C17.3768 91.1638 19.3397 65.6758 25.083 48.7546C28.8634 37.639 32.353 22.417 47.9108 13.9918C60.706 6.98257 143.584 1.24777 189.967 5.84977C215.848 8.39858 237.294 33.1078 250.671 53.6398C294.727 61.4986 295.818 61.4986 306.141 64.6138C316.465 67.6582 326.57 75.3754 326.57 86.9158C326.57 94.3498 326.57 115.023 326.57 115.023H19.994C19.5578 107.943 19.1943 109.643 18.7581 102.633Z" fill="#135677"/>
<path opacity="0.49" d="M306.868 62.419C296.545 59.3746 295.454 59.3746 251.398 51.445C238.021 30.913 216.575 6.20375 190.694 3.65495C144.311 -0.94705 61.433 4.78775 48.6378 11.797C45.1482 13.7086 42.3129 15.9742 39.8411 18.3814C39.8411 18.3814 39.9138 18.3814 39.9138 18.3106C52.709 11.3014 135.587 5.56656 181.97 10.1686C206.324 12.5758 228.498 34.6654 242.092 54.3478C243.692 56.6842 246.236 58.2418 249.072 58.7374C288.548 65.8174 288.112 65.8882 298.144 68.8618C308.468 71.9062 318.573 79.6234 318.573 91.1638C318.573 95.9074 318.573 106.032 318.573 112.687H327.297C327.297 112.687 327.297 92.0134 327.297 84.5794C327.297 73.1806 317.192 65.4634 306.868 62.419Z" fill="#4DCBAB"/>
<path opacity="0.21" d="M185.532 49.8874V112.97" stroke="#72757C" stroke-width="3" stroke-miterlimit="10" stroke-linecap="round"/>
<path opacity="0.21" d="M83.7519 49.8874L82.0798 112.97" stroke="#72757C" stroke-width="3" stroke-miterlimit="10" stroke-linecap="round"/>
<path opacity="0.2" d="M47.2565 48.7545C51.0369 37.6389 54.5265 22.417 70.0843 13.9918C78.881 9.17735 120.611 5.00014 160.959 4.29214C115.158 3.44254 58.3796 8.25695 47.9108 13.9918C32.353 22.4878 28.8634 37.6389 25.083 48.7545C19.3397 65.6757 17.4495 91.1638 18.7581 102.633C19.1943 109.643 19.5578 107.943 19.994 115.023H42.1675C41.7313 107.943 41.3678 109.643 40.9316 102.633C39.5503 91.1638 41.5132 65.6757 47.2565 48.7545Z" fill="#72757C"/>
<path d="M18.7581 102.633C17.3768 91.1638 19.3397 65.6758 25.083 48.7546C28.8634 37.639 32.353 22.417 47.9108 13.9918C60.706 6.98257 143.584 1.24777 189.967 5.84977C214.248 8.25697 234.604 30.1342 248.054 49.7458C249.799 52.2238 252.489 53.9938 255.542 54.4894C294.8 61.4986 296.181 61.6402 306.141 64.543C316.465 67.5874 326.57 75.3046 326.57 86.845C326.57 94.279 326.57 114.953 326.57 114.953H19.994C19.5578 107.943 19.1943 109.643 18.7581 102.633Z" stroke="#135677" stroke-width="8" stroke-miterlimit="10" stroke-linecap="round" stroke-linejoin="round"/>
<path d="M185.605 53.8522C180.225 36.931 170.919 22.2046 164.158 12.9298C173.536 13.2838 181.824 13.921 188.949 14.6998C210.468 17.1778 228.207 37.0018 240.057 54.7018L185.605 53.8522Z" fill="#FFC88D"/>
<path opacity="0.2" d="M196.582 39.8338C192.584 32.7538 198.327 24.2577 206.542 25.0365C208.069 25.1781 209.523 25.3197 210.977 25.5321C212.213 25.6737 213.449 25.8862 214.612 26.1694C206.906 20.1514 198.254 15.8326 188.949 14.7705C181.824 13.9209 173.464 13.3545 164.158 13.0005C170.919 22.2754 180.225 37.0018 185.605 53.923L203.707 54.2061C201.526 49.0377 199.054 44.2234 196.582 39.8338Z" fill="#FFBF73"/>
<path d="M185.605 53.8522C180.225 36.931 170.919 22.2046 164.158 12.9298C173.536 13.2838 181.824 13.921 188.949 14.6998C210.468 17.1778 228.207 37.0018 240.057 54.7018L185.605 53.8522Z" stroke="#135677" stroke-width="8" stroke-miterlimit="10" stroke-linecap="round" stroke-linejoin="round"/>
<path d="M91.0219 53.1441L94.148 15.4785C111.087 14.2749 129.771 13.7085 146.928 13.7793C148.746 13.7793 150.563 13.7793 152.308 13.8501C158.851 21.7797 169.611 36.4353 175.936 53.6397L91.0219 53.1441Z" fill="#FFC88D"/>
<path opacity="0.2" d="M104.181 34.5237C104.69 28.0101 110.796 22.8417 118.43 22.4169C131.007 21.7797 144.02 21.4965 156.307 21.5673C156.961 21.5673 157.615 21.5673 158.342 21.5673C156.161 18.5229 154.126 15.9033 152.308 13.7793C150.491 13.7793 148.746 13.7085 146.928 13.7085C129.771 13.6377 111.087 14.2041 94.148 15.4077L91.0219 53.0733L102.654 53.1441L104.181 34.5237Z" fill="#FFBF73"/>
<path d="M91.0219 53.1441L94.148 15.4785C111.087 14.2749 129.771 13.7085 146.928 13.7793C148.746 13.7793 150.563 13.7793 152.308 13.8501C158.851 21.7797 169.611 36.4353 175.936 53.6397L91.0219 53.1441Z" stroke="#135677" stroke-width="8" stroke-miterlimit="10" stroke-linecap="round" stroke-linejoin="round"/>
<path d="M70.5205 124.298H17.1587C9.96142 124.298 4.07272 118.563 4.07272 111.554C4.07272 104.545 9.96142 98.8102 17.1587 98.8102H70.5205V124.298V124.298Z" fill="white"/>
<path opacity="0.2" d="M19.6305 114.953C19.6305 107.943 25.5192 102.209 32.7165 102.209H70.4478V98.881H17.086C9.8887 98.881 4 104.616 4 111.625C4 118.634 9.8887 124.369 17.086 124.369H23.9198C21.3026 122.033 19.6305 118.634 19.6305 114.953Z" fill="#72757C"/>
<path d="M70.5205 124.298H17.1587C9.96142 124.298 4.07272 118.563 4.07272 111.554C4.07272 104.545 9.96142 98.8102 17.1587 98.8102H70.5205V124.298V124.298Z" stroke="#135677" stroke-width="8" stroke-miterlimit="10" stroke-linecap="round" stroke-linejoin="round"/>
<path d="M328.751 124.298H285.058V103.058H328.751C334.785 103.058 339.656 107.802 339.656 113.678C339.656 119.555 334.785 124.298 328.751 124.298Z" fill="white"/>
<path opacity="0.2" d="M287.894 111.271H331.659C334.785 111.271 337.62 112.616 339.656 114.669C339.656 114.315 339.729 114.032 339.729 113.678C339.729 107.802 334.858 103.058 328.824 103.058H285.131V124.298H288.039V111.271H287.894Z" fill="#72757C"/>
<path d="M328.751 124.298H285.058V103.058H328.751C334.785 103.058 339.656 107.802 339.656 113.678C339.656 119.555 334.785 124.298 328.751 124.298Z" stroke="#135677" stroke-width="8" stroke-miterlimit="10" stroke-linecap="round" stroke-linejoin="round"/>
<path d="M229.443 112.97H94.5842V124.298H229.443V112.97Z" fill="white"/>
<path opacity="0.2" d="M229.443 112.97H94.5842V118.634H229.443V112.97Z" fill="#72757C"/>
<path d="M229.443 112.97H94.5842V124.298H229.443V112.97Z" stroke="#135677" stroke-width="8" stroke-miterlimit="10" stroke-linecap="round" stroke-linejoin="round"/>
<path d="M262.085 153.185C279.952 153.185 294.437 139.079 294.437 121.679C294.437 104.278 279.952 90.1726 262.085 90.1726C244.218 90.1726 229.734 104.278 229.734 121.679C229.734 139.079 244.218 153.185 262.085 153.185Z" fill="#82818C"/>
<path d="M262.085 153.185C279.952 153.185 294.437 139.079 294.437 121.679C294.437 104.278 279.952 90.1726 262.085 90.1726C244.218 90.1726 229.734 104.278 229.734 121.679C229.734 139.079 244.218 153.185 262.085 153.185Z" stroke="#135677" stroke-width="8" stroke-miterlimit="10" stroke-linecap="round" stroke-linejoin="round"/>
<path d="M262.085 138.741C271.761 138.741 279.606 131.102 279.606 121.679C279.606 112.255 271.761 104.616 262.085 104.616C252.409 104.616 244.564 112.255 244.564 121.679C244.564 131.102 252.409 138.741 262.085 138.741Z" fill="white"/>
<path d="M262.085 138.741C271.761 138.741 279.606 131.102 279.606 121.679C279.606 112.255 271.761 104.616 262.085 104.616C252.409 104.616 244.564 112.255 244.564 121.679C244.564 131.102 252.409 138.741 262.085 138.741Z" stroke="#135677" stroke-width="8" stroke-miterlimit="10" stroke-linecap="round" stroke-linejoin="round"/>
<path d="M262.085 126.918C265.056 126.918 267.465 124.572 267.465 121.679C267.465 118.785 265.056 116.439 262.085 116.439C259.114 116.439 256.705 118.785 256.705 121.679C256.705 124.572 259.114 126.918 262.085 126.918Z" stroke="#135677" stroke-width="8" stroke-miterlimit="10" stroke-linecap="round" stroke-linejoin="round"/>
<path d="M74.5917 153.185C92.459 153.185 106.943 139.079 106.943 121.679C106.943 104.278 92.459 90.1726 74.5917 90.1726C56.7245 90.1726 42.2402 104.278 42.2402 121.679C42.2402 139.079 56.7245 153.185 74.5917 153.185Z" fill="#82818C"/>
<path d="M74.5917 153.185C92.459 153.185 106.943 139.079 106.943 121.679C106.943 104.278 92.459 90.1726 74.5917 90.1726C56.7245 90.1726 42.2402 104.278 42.2402 121.679C42.2402 139.079 56.7245 153.185 74.5917 153.185Z" stroke="#135677" stroke-width="8" stroke-miterlimit="10" stroke-linecap="round" stroke-linejoin="round"/>
<path d="M74.5917 138.741C84.2681 138.741 92.1124 131.102 92.1124 121.679C92.1124 112.255 84.2681 104.616 74.5917 104.616C64.9153 104.616 57.071 112.255 57.071 121.679C57.071 131.102 64.9153 138.741 74.5917 138.741Z" fill="white"/>
<path d="M74.5917 138.741C84.2681 138.741 92.1124 131.102 92.1124 121.679C92.1124 112.255 84.2681 104.616 74.5917 104.616C64.9153 104.616 57.071 112.255 57.071 121.679C57.071 131.102 64.9153 138.741 74.5917 138.741Z" stroke="#135677" stroke-width="8" stroke-miterlimit="10" stroke-linecap="round" stroke-linejoin="round"/>
<path d="M74.5917 126.918C77.5629 126.918 79.9715 124.572 79.9715 121.679C79.9715 118.785 77.5629 116.439 74.5917 116.439C71.6205 116.439 69.2119 118.785 69.2119 121.679C69.2119 124.572 71.6205 126.918 74.5917 126.918Z" stroke="#135677" stroke-width="8" stroke-miterlimit="10" stroke-linecap="round" stroke-linejoin="round"/>
<path d="M85.0605 14.7706C65.795 16.753 55.9078 19.231 52.9998 20.9302C41.5859 27.727 38.0963 39.1966 35.0429 49.321C34.6794 50.4538 34.3886 51.5158 34.0251 52.5778C33.9524 52.861 33.8797 53.1442 33.7343 53.4274H82.3706L85.0605 14.7706Z" fill="#FFC88D"/>
<path opacity="0.2" d="M46.166 53.0026C49.2194 42.8782 52.6363 31.4086 64.1229 24.6118C66.3766 23.2666 72.9196 21.4966 84.7697 19.8682L85.1332 14.7706C65.8677 16.753 55.9805 19.231 53.0725 20.9302C41.6586 27.727 38.169 39.1966 35.1156 49.321C34.7521 50.4538 34.4613 51.5158 34.0978 52.5778C34.0251 52.861 33.9524 53.1442 33.807 53.4274H45.9479C46.0933 53.2858 46.0933 53.1442 46.166 53.0026Z" fill="#FFBF73"/>
<path d="M85.0605 14.7706C65.795 16.753 55.9078 19.231 52.9998 20.9302C41.5859 27.727 38.0963 39.1966 35.0429 49.321C34.6794 50.4538 34.3886 51.5158 34.0251 52.5778C33.9524 52.861 33.8797 53.1442 33.7343 53.4274H82.3706L85.0605 14.7706Z" stroke="#135677" stroke-width="8" stroke-miterlimit="10" stroke-linecap="round" stroke-linejoin="round"/>
<path d="M332.459 81.1101C333.258 85.9245 328.678 89.8893 321.408 90.5265C314.502 91.1637 306.577 88.1901 305.269 83.3758C304.469 78.5614 312.757 74.2426 319.736 73.6054C326.643 72.9682 331.514 76.2957 332.459 81.1101Z" fill="white"/>
<path d="M332.459 81.1101C333.258 85.9245 328.678 89.8893 321.408 90.5265C314.502 91.1637 306.577 88.1901 305.269 83.3758C304.469 78.5614 312.757 74.2426 319.736 73.6054C326.643 72.9682 331.514 76.2957 332.459 81.1101Z" stroke="#135677" stroke-width="8" stroke-miterlimit="10" stroke-linecap="round" stroke-linejoin="round"/>
<path d="M206.615 66.1714H192.802" stroke="#135677" stroke-width="8" stroke-miterlimit="10" stroke-linecap="round" stroke-linejoin="round"/>
<path d="M107.016 66.1714H92.4759" stroke="#135677" stroke-width="8" stroke-miterlimit="10" stroke-linecap="round" stroke-linejoin="round"/>
</svg>
