<svg width="433" height="92" viewBox="0 0 433 92" fill="none" xmlns="http://www.w3.org/2000/svg">
<g filter="url(#filter0_d_109_61)">
<path d="M12.16 70C9.424 70 7.48 69.472 6.328 68.416C5.224 67.312 4.672 65.704 4.672 63.592C4.672 63.016 4.696 62.056 4.744 60.712C4.84 59.32 4.96 57.688 5.104 55.816C5.248 53.944 5.392 51.904 5.536 49.696C5.728 47.44 5.92 45.16 6.112 42.856C6.496 38.008 6.76 34.072 6.904 31.048C7.096 28.024 7.24 25.648 7.336 23.92C7.48 21.76 7.624 20.392 7.768 19.816C7.912 19.192 8.224 18.88 8.704 18.88C10.192 18.88 11.704 18.856 13.24 18.808C14.824 18.712 16.336 18.616 17.776 18.52C19.216 18.424 20.56 18.352 21.808 18.304C23.104 18.208 24.256 18.16 25.264 18.16C28.336 18.16 30.976 18.544 33.184 19.312C35.392 20.08 37.168 21.16 38.512 22.552C39.904 23.944 40.912 25.624 41.536 27.592C42.208 29.56 42.544 31.768 42.544 34.216C42.544 37.96 41.8 41.296 40.312 44.224C38.824 47.152 36.448 49.384 33.184 50.92L39.232 59.56C40.336 61.192 41.176 62.464 41.752 63.376C42.328 64.24 42.616 64.888 42.616 65.32C42.616 65.656 42.4 66.136 41.968 66.76C41.584 67.336 40.984 67.936 40.168 68.56C39.4 69.136 38.44 69.64 37.288 70.072C36.184 70.504 34.936 70.72 33.544 70.72C32.008 70.72 30.664 70.216 29.512 69.208C28.408 68.2 27.4 66.88 26.488 65.248C25.624 63.568 24.856 61.648 24.184 59.488C23.56 57.328 22.96 55.072 22.384 52.72C20.656 52.624 19.24 52.456 18.136 52.216C17.992 54.328 17.848 56.344 17.704 58.264C17.56 60.184 17.44 61.912 17.344 63.448C17.248 64.936 17.152 66.184 17.056 67.192C16.96 68.152 16.912 68.728 16.912 68.92C16.864 69.304 16.768 69.592 16.624 69.784C16.48 69.928 16.192 70 15.76 70H12.16ZM23.824 28.96C23.248 28.96 22.6 29.008 21.88 29.104C21.16 29.152 20.392 29.224 19.576 29.32C19.48 31 19.36 33.016 19.216 35.368C19.12 37.672 18.976 40.144 18.784 42.784C20.464 43.168 21.928 43.36 23.176 43.36C24.664 43.36 25.864 43.072 26.776 42.496C27.736 41.92 28.48 41.224 29.008 40.408C29.536 39.544 29.872 38.632 30.016 37.672C30.208 36.712 30.304 35.848 30.304 35.08C30.304 33.112 29.824 31.6 28.864 30.544C27.904 29.488 26.224 28.96 23.824 28.96ZM92.6358 61.144C92.6358 56.824 94.5798 53.44 98.4678 50.992C102.356 48.544 108.092 47.224 115.676 47.032C115.724 46.504 115.748 46.072 115.748 45.736C115.796 45.352 115.82 44.896 115.82 44.368C115.82 42.832 115.532 41.608 114.956 40.696C114.38 39.784 113.18 39.328 111.356 39.328C110.348 39.328 109.532 39.472 108.908 39.76C108.284 40.048 107.78 40.456 107.396 40.984C107.012 41.464 106.7 42.064 106.46 42.784C106.22 43.504 106.004 44.296 105.812 45.16C105.716 45.592 105.5 45.88 105.164 46.024C104.828 46.12 104.3 46.168 103.58 46.168C98.6838 46.168 96.2358 44.32 96.2358 40.624C96.2358 39.136 96.5718 37.72 97.2438 36.376C97.9638 35.032 98.9958 33.88 100.34 32.92C101.732 31.912 103.46 31.12 105.524 30.544C107.588 29.968 109.988 29.68 112.724 29.68C118.052 29.68 121.916 30.784 124.316 32.992C126.716 35.2 127.916 38.32 127.916 42.352C127.916 42.88 127.844 43.84 127.7 45.232C127.604 46.576 127.46 48.016 127.268 49.552C127.124 51.04 126.98 52.456 126.836 53.8C126.74 55.144 126.692 56.08 126.692 56.608C126.692 57.808 126.908 58.672 127.34 59.2C127.772 59.68 128.252 60.016 128.78 60.208C129.356 60.4 129.86 60.544 130.292 60.64C130.724 60.736 130.94 60.976 130.94 61.36C130.94 62.416 130.796 63.496 130.508 64.6C130.22 65.704 129.74 66.712 129.068 67.624C128.444 68.536 127.556 69.28 126.404 69.856C125.3 70.432 123.932 70.72 122.3 70.72C119.996 70.72 118.268 70.168 117.116 69.064C115.964 67.96 115.196 66.424 114.812 64.456C113.66 66.136 112.148 67.6 110.276 68.848C108.452 70.096 106.052 70.72 103.076 70.72C101.636 70.72 100.268 70.552 98.9718 70.216C97.7238 69.88 96.6198 69.328 95.6598 68.56C94.7478 67.792 94.0038 66.808 93.4278 65.608C92.8998 64.36 92.6358 62.872 92.6358 61.144ZM115.028 52.936C113.78 52.936 112.556 53.032 111.356 53.224C110.156 53.416 109.076 53.728 108.116 54.16C107.204 54.544 106.46 55.072 105.884 55.744C105.308 56.416 105.02 57.232 105.02 58.192C105.02 59.296 105.356 60.064 106.028 60.496C106.748 60.928 107.516 61.144 108.332 61.144C109.1 61.144 109.868 60.976 110.636 60.64C111.404 60.304 112.076 59.8 112.652 59.128C113.276 58.408 113.804 57.544 114.236 56.536C114.668 55.528 114.932 54.328 115.028 52.936ZM148.542 70.72C146.67 70.72 144.87 70.384 143.142 69.712C141.462 69.04 139.974 67.984 138.678 66.544C137.43 65.104 136.422 63.28 135.654 61.072C134.934 58.864 134.574 56.2 134.574 53.08C134.574 51.688 134.67 50.152 134.862 48.472C135.054 46.744 135.39 45.016 135.87 43.288C136.35 41.56 137.022 39.88 137.886 38.248C138.75 36.616 139.83 35.176 141.126 33.928C142.47 32.632 144.054 31.6 145.878 30.832C147.75 30.064 149.934 29.68 152.43 29.68C154.83 29.68 156.75 30.112 158.19 30.976C159.678 31.792 160.614 33.232 160.998 35.296C161.094 33.424 161.19 31.792 161.286 30.4C161.382 29.008 161.454 27.712 161.502 26.512C161.598 25.312 161.694 24.112 161.79 22.912C161.886 21.712 161.982 20.344 162.078 18.808C162.126 17.752 162.246 17.128 162.438 16.936C162.534 16.84 162.654 16.792 162.798 16.792C162.942 16.744 163.206 16.72 163.59 16.72H166.398C167.838 16.72 169.038 16.888 169.998 17.224C170.958 17.56 171.726 18.016 172.302 18.592C172.878 19.168 173.286 19.84 173.526 20.608C173.766 21.328 173.886 22.096 173.886 22.912C173.886 22.912 173.838 23.512 173.742 24.712C173.646 25.912 173.526 27.52 173.382 29.536C173.238 31.504 173.07 33.76 172.878 36.304C172.686 38.848 172.494 41.488 172.302 44.224C172.11 46.912 171.918 49.6 171.726 52.288C171.534 54.928 171.342 57.376 171.15 59.632C170.958 61.84 170.79 63.76 170.646 65.392C170.55 66.976 170.478 68.032 170.43 68.56C170.334 69.136 170.214 69.52 170.07 69.712C169.926 69.904 169.518 70 168.846 70H166.254C165.246 70 164.286 69.928 163.374 69.784C162.51 69.592 161.742 69.304 161.07 68.92C160.446 68.488 159.942 67.936 159.558 67.264C159.222 66.544 159.054 65.632 159.054 64.528C158.19 66.352 156.87 67.84 155.094 68.992C153.366 70.144 151.182 70.72 148.542 70.72ZM154.806 39.256C152.358 39.256 150.534 40.336 149.334 42.496C148.182 44.608 147.606 47.464 147.606 51.064C147.606 52.312 147.678 53.536 147.822 54.736C148.014 55.936 148.326 57.016 148.758 57.976C149.19 58.936 149.766 59.704 150.486 60.28C151.254 60.856 152.214 61.144 153.366 61.144C155.43 61.144 157.158 60.136 158.55 58.12C159.942 56.104 160.638 52.936 160.638 48.616C160.638 47.416 160.566 46.264 160.422 45.16C160.278 44.008 159.99 43 159.558 42.136C159.126 41.272 158.526 40.576 157.758 40.048C156.99 39.52 156.006 39.256 154.806 39.256ZM203.219 28.96L200.483 68.92C200.435 69.64 200.171 70 199.691 70H195.731C193.043 70 191.123 69.472 189.971 68.416C188.819 67.36 188.243 65.848 188.243 63.88C188.243 63.16 188.267 62.08 188.315 60.64C188.411 59.2 188.531 57.52 188.675 55.6C188.819 53.632 188.963 51.52 189.107 49.264C189.299 46.96 189.491 44.656 189.683 42.352C189.875 40 190.043 37.672 190.187 35.368C190.379 33.064 190.547 30.928 190.691 28.96H179.171C178.643 28.96 178.379 28.624 178.379 27.952L178.595 23.92C178.643 23.296 178.739 22.696 178.883 22.12C179.075 21.496 179.363 20.944 179.747 20.464C180.131 19.984 180.611 19.6 181.187 19.312C181.811 19.024 182.555 18.88 183.419 18.88H215.603C215.891 18.88 216.155 18.952 216.395 19.096C216.635 19.24 216.755 19.504 216.755 19.888L216.467 24.136C216.371 25.576 215.963 26.752 215.243 27.664C214.571 28.528 213.155 28.96 210.995 28.96H203.219ZM238.778 47.608C238.49 47.608 238.154 47.608 237.77 47.608C237.434 47.56 237.098 47.512 236.762 47.464C236.426 47.368 236.138 47.272 235.898 47.176C235.658 47.032 235.538 46.864 235.538 46.672C235.538 46.048 235.562 45.472 235.61 44.944C235.658 44.416 235.682 43.864 235.682 43.288C235.682 42.232 235.538 41.368 235.25 40.696C234.962 40.024 234.386 39.688 233.522 39.688C232.178 39.688 231.05 40.576 230.138 42.352C229.274 44.08 228.722 46.696 228.482 50.2C228.386 51.736 228.242 53.488 228.05 55.456C227.906 57.376 227.762 59.248 227.618 61.072C227.474 62.848 227.354 64.432 227.258 65.824C227.162 67.216 227.114 68.128 227.114 68.56C227.114 69.04 226.946 69.4 226.61 69.64C226.274 69.88 225.914 70 225.53 70H222.938C221.45 70 220.226 69.856 219.266 69.568C218.354 69.232 217.61 68.776 217.034 68.2C216.506 67.624 216.122 66.928 215.882 66.112C215.69 65.248 215.594 64.264 215.594 63.16C215.594 62.44 215.618 61.432 215.666 60.136C215.762 58.792 215.906 56.968 216.098 54.664C216.29 52.312 216.506 49.36 216.746 45.808C217.034 42.208 217.37 37.768 217.754 32.488C217.85 31.096 218.354 30.4 219.266 30.4H222.074C223.418 30.4 224.546 30.544 225.458 30.832C226.37 31.12 227.114 31.528 227.69 32.056C228.266 32.536 228.674 33.112 228.914 33.784C229.202 34.456 229.394 35.152 229.49 35.872C230.066 34.768 230.738 33.832 231.506 33.064C232.322 32.248 233.162 31.6 234.026 31.12C234.89 30.592 235.778 30.232 236.69 30.04C237.602 29.8 238.442 29.68 239.21 29.68C240.122 29.68 241.034 29.848 241.946 30.184C242.906 30.52 243.77 31.024 244.538 31.696C245.306 32.368 245.906 33.232 246.338 34.288C246.818 35.344 247.058 36.592 247.058 38.032C247.058 39.328 246.866 40.552 246.482 41.704C246.098 42.856 245.546 43.888 244.826 44.8C244.106 45.664 243.218 46.36 242.162 46.888C241.154 47.368 240.026 47.608 238.778 47.608ZM257.391 70C255.903 70 254.679 69.856 253.719 69.568C252.807 69.232 252.063 68.776 251.487 68.2C250.959 67.624 250.575 66.928 250.335 66.112C250.143 65.248 250.047 64.264 250.047 63.16C250.047 62.44 250.071 61.432 250.119 60.136C250.215 58.792 250.359 56.968 250.551 54.664C250.743 52.312 250.959 49.36 251.199 45.808C251.487 42.208 251.823 37.768 252.207 32.488C252.255 31.432 252.375 30.808 252.567 30.616C252.711 30.472 253.095 30.4 253.719 30.4H256.527C258.015 30.4 259.215 30.544 260.127 30.832C261.087 31.12 261.831 31.552 262.359 32.128C262.935 32.704 263.319 33.4 263.511 34.216C263.751 35.032 263.871 35.944 263.871 36.952C263.871 37.672 263.823 38.752 263.727 40.192C263.631 41.632 263.487 43.6 263.295 46.096C263.151 48.544 262.935 51.616 262.647 55.312C262.359 58.96 261.999 63.376 261.567 68.56C261.519 69.136 261.399 69.52 261.207 69.712C261.015 69.904 260.607 70 259.983 70H257.391ZM252.279 21.904C252.279 19.984 252.975 18.472 254.367 17.368C255.759 16.264 257.631 15.712 259.983 15.712C262.047 15.712 263.535 16.144 264.447 17.008C265.407 17.824 265.887 18.928 265.887 20.32C265.887 22.096 265.215 23.584 263.871 24.784C262.575 25.936 260.655 26.512 258.111 26.512C254.223 26.512 252.279 24.976 252.279 21.904ZM295.137 29.68C299.649 29.68 303.033 31.072 305.289 33.856C307.593 36.64 308.745 41.032 308.745 47.032C308.745 50.776 308.313 54.112 307.449 57.04C306.585 59.968 305.385 62.464 303.849 64.528C302.313 66.544 300.513 68.08 298.449 69.136C296.385 70.192 294.153 70.72 291.753 70.72C289.209 70.72 287.217 70.168 285.777 69.064C284.337 67.96 283.209 66.4 282.393 64.384C282.249 66.112 282.129 67.432 282.033 68.344C281.937 69.256 281.865 69.976 281.817 70.504C281.769 71.08 281.721 71.584 281.673 72.016C281.673 72.448 281.625 73.024 281.529 73.744C281.481 74.464 281.409 75.448 281.313 76.696C281.217 77.944 281.073 79.672 280.881 81.88C280.833 82.456 280.713 82.84 280.521 83.032C280.329 83.224 279.921 83.32 279.297 83.32H276.705C275.217 83.32 273.993 83.152 273.033 82.816C272.121 82.528 271.377 82.096 270.801 81.52C270.273 80.944 269.889 80.224 269.649 79.36C269.457 78.544 269.361 77.584 269.361 76.48C269.361 76 269.433 74.704 269.577 72.592C269.721 70.48 269.889 67.96 270.081 65.032C270.321 62.056 270.561 58.864 270.801 55.456C271.089 52.048 271.353 48.808 271.593 45.736C271.833 42.616 272.025 39.856 272.169 37.456C272.361 35.056 272.505 33.4 272.601 32.488C272.649 31.432 272.769 30.808 272.961 30.616C273.105 30.472 273.489 30.4 274.113 30.4H276.921C279.513 30.4 281.385 30.952 282.537 32.056C283.737 33.112 284.337 34.384 284.337 35.872C285.441 33.664 286.857 32.08 288.585 31.12C290.361 30.16 292.545 29.68 295.137 29.68ZM289.881 39.256C287.433 39.256 285.633 40.312 284.481 42.424C283.329 44.536 282.753 47.416 282.753 51.064C282.753 52.312 282.825 53.536 282.969 54.736C283.161 55.936 283.473 57.016 283.905 57.976C284.337 58.936 284.913 59.704 285.633 60.28C286.401 60.856 287.361 61.144 288.513 61.144C290.577 61.144 292.305 60.136 293.697 58.12C295.089 56.104 295.785 52.936 295.785 48.616C295.785 47.416 295.689 46.264 295.497 45.16C295.353 44.008 295.065 43 294.633 42.136C294.201 41.272 293.601 40.576 292.833 40.048C292.065 39.52 291.081 39.256 289.881 39.256ZM319.999 57.184C322.015 57.184 323.455 57.688 324.319 58.696C325.183 59.656 325.615 61.024 325.615 62.8C325.615 63.52 325.519 64.36 325.327 65.32C325.135 66.232 324.775 67.096 324.247 67.912C323.767 68.68 323.071 69.352 322.159 69.928C321.247 70.456 320.047 70.72 318.559 70.72C316.351 70.72 314.863 70.168 314.095 69.064C313.327 67.912 312.943 66.496 312.943 64.816C312.943 63.856 313.063 62.92 313.303 62.008C313.543 61.096 313.927 60.28 314.455 59.56C314.983 58.84 315.703 58.264 316.615 57.832C317.527 57.4 318.655 57.184 319.999 57.184Z" fill="black"/>
<path d="M363.602 47.3945H342.121V70H335.371V18.8125H367.082V24.3672H342.121V41.875H363.602V47.3945ZM383.887 18.8125L400.621 60.5781L417.355 18.8125H426.109V70H419.359V50.0664L419.992 28.5508L403.188 70H398.02L381.25 28.6562L381.918 50.0664V70H375.168V18.8125H383.887Z" fill="#0393B3"/>
<ellipse rx="23.9077" ry="22.4112" transform="matrix(0.999993 -0.00380247 0.00404037 0.999992 67.9981 49.5019)" fill="black"/>
<ellipse cx="68.2526" cy="49.5038" rx="12.1263" ry="10.6579" fill="white"/>
<line y1="-0.5" x2="28.4255" y2="-0.5" transform="matrix(0.017775 0.999842 -0.999878 0.0156231 68.2526 35.0564)" stroke="black"/>
<path d="M56.6404 49.9945L80.2413 50.0479M59.7261 57.8542L77.392 42.4421M77.392 57.8542L59.6913 42.402" stroke="black"/>
</g>
<defs>
<filter id="filter0_d_109_61" x="0.671997" y="15.712" width="429.437" height="75.608" filterUnits="userSpaceOnUse" color-interpolation-filters="sRGB">
<feFlood flood-opacity="0" result="BackgroundImageFix"/>
<feColorMatrix in="SourceAlpha" type="matrix" values="0 0 0 0 0 0 0 0 0 0 0 0 0 0 0 0 0 0 127 0" result="hardAlpha"/>
<feOffset dy="4"/>
<feGaussianBlur stdDeviation="2"/>
<feComposite in2="hardAlpha" operator="out"/>
<feColorMatrix type="matrix" values="0 0 0 0 0 0 0 0 0 0 0 0 0 0 0 0 0 0 0.25 0"/>
<feBlend mode="normal" in2="BackgroundImageFix" result="effect1_dropShadow_109_61"/>
<feBlend mode="normal" in="SourceGraphic" in2="effect1_dropShadow_109_61" result="shape"/>
</filter>
</defs>
</svg>
