<svg width="120" height="146" viewBox="0 0 120 146" fill="none" xmlns="http://www.w3.org/2000/svg">
<line y1="-0.5" x2="96.0866" y2="-0.5" transform="matrix(0.469335 -0.88302 0.927587 0.373608 15 145.846)" stroke="black"/>
<line y1="-0.5" x2="94.756" y2="-0.5" transform="matrix(0.445221 0.895421 -0.935778 0.35259 60.0969 61)" stroke="black"/>
<line y1="-0.5" x2="38.2214" y2="-0.5" transform="matrix(0.837339 0.546684 -0.65272 0.7576 49.1863 82.5282)" stroke="black"/>
<line y1="-0.5" x2="32.1713" y2="-0.5" transform="matrix(-0.859151 0.511722 -0.617954 -0.786214 68.8253 82.5282)" stroke="black"/>
<path d="M41.3311 100.257L94.6766 133.901" stroke="black"/>
<line y1="-0.5" x2="62.2746" y2="-0.5" transform="matrix(-0.899361 0.437206 -0.539955 -0.841694 81.1906 103.423)" stroke="black"/>
<path d="M90.0059 26.0079L65.0912 49.6169L89.9941 75.4023L59.999 53.5857L29.9941 72.781L54.9088 49.172L30.0059 23.3866L60.001 45.2032L90.0059 26.0079Z" fill="black"/>
</svg>
